<svg width="337" height="364" viewBox="0 0 337 364" fill="none" xmlns="http://www.w3.org/2000/svg">
<path d="M142.192 87.6694C167.149 71.6611 194.348 47.3793 214.69 51.4081C235.083 55.4605 248.539 87.8352 263.478 117.873C278.436 147.992 294.78 175.715 291.153 200.249C287.556 224.733 263.944 245.998 240.085 265.498C216.226 284.998 192.17 302.76 163.996 307.802C135.875 312.876 103.645 305.234 76.7214 286.326C49.7547 267.388 28.0685 237.109 28.2005 207.365C28.2848 177.593 50.2112 148.306 72.4928 129.804C94.7033 111.325 117.312 103.656 142.192 87.6694Z" fill="#EBC55B"/>
<path fill-rule="evenodd" clip-rule="evenodd" d="M169.146 109.176L272.079 252.132C271.221 253.144 270.168 253.954 268.99 254.508C267.811 255.062 266.534 255.347 265.242 255.346H74.1932C72.8974 255.347 71.6163 255.059 70.4349 254.501C69.2536 253.943 68.1992 253.128 67.3418 252.111L169.146 109.176Z" fill="#25384D"/>
<path fill-rule="evenodd" clip-rule="evenodd" d="M265.242 109.176C267.669 109.176 269.997 110.186 271.713 111.983C273.43 113.781 274.394 116.219 274.394 118.761V245.761C274.397 248.11 273.573 250.378 272.08 252.131L169.433 109.577L67.3485 252.125C65.8591 250.373 65.0377 248.108 65.041 245.762V118.762C65.041 116.22 66.0053 113.782 67.7216 111.984C69.4379 110.187 71.7658 109.177 74.1931 109.177L265.242 109.176Z" fill="#38857B"/>
<path fill-rule="evenodd" clip-rule="evenodd" d="M265.243 109.176C267.457 109.172 269.598 110.014 271.264 111.542L178.418 181.68C175.885 183.593 172.841 184.623 169.718 184.623C166.595 184.623 163.551 183.593 161.018 181.68L68.1729 111.541C69.8386 110.013 71.9784 109.172 74.1926 109.176H265.243Z" fill="#8EDAC2"/>
</svg>
