<svg width="400" height="372" viewBox="0 0 400 372" fill="none" xmlns="http://www.w3.org/2000/svg">
<g filter="url(#filter0_d_298_13385)">
<path d="M295.944 77.5032C333.998 99.0343 383.832 117.473 393.964 147.584C404.095 177.779 374.441 219.552 348.743 261.584C322.961 303.706 301.135 345.906 268.434 359.111C235.815 372.32 192.325 356.451 150.812 338.954C109.299 321.456 69.7583 302.416 42.7428 268.526C15.7322 234.728 1.22804 186.093 4.44095 136.255C7.65386 86.3366 28.6576 35.1217 65.1476 13.4195C101.638 -8.36821 153.694 -0.648356 192.819 15.479C231.862 31.5262 257.974 56.0594 295.944 77.5032Z" fill="#FEC6A9"/>
<path d="M104.56 289.921C99.6706 289.921 94.9813 287.898 91.5238 284.297C88.0664 280.697 86.124 275.813 86.124 270.721V134.581C86.124 129.489 88.0664 124.606 91.5238 121.005C94.9813 117.404 99.6706 115.382 104.56 115.382H116.302C116.896 107.573 118.532 99.8885 121.163 92.5502C122.793 88.0143 124.812 83.6407 127.196 79.4825C129.516 75.4423 132.19 71.6345 135.184 68.1077C138.113 64.6551 141.356 61.5063 144.868 58.7053C148.328 55.9499 152.052 53.5729 155.98 51.6121C163.924 47.6324 172.626 45.5659 181.442 45.5659C190.257 45.5659 198.96 47.6324 206.904 51.6121C210.831 53.573 214.554 55.9499 218.014 58.7053C221.527 61.5051 224.769 64.6541 227.696 68.1077C230.691 71.6373 233.365 75.448 235.684 79.4912C238.069 83.6494 240.088 88.023 241.718 92.5589C244.349 99.897 245.985 107.582 246.578 115.39H257.077C261.966 115.39 266.656 117.413 270.113 121.014C273.571 124.614 275.513 129.498 275.513 134.59V270.73C275.513 275.822 273.571 280.705 270.113 284.306C266.656 287.907 261.966 289.929 257.077 289.929L104.56 289.921ZM227.033 115.382C226.521 110.315 225.43 105.33 223.781 100.534C221.563 93.9851 218.228 87.9078 213.935 82.5945C209.906 77.5721 204.936 73.4582 199.328 70.5042C193.781 67.5897 187.655 66.0714 181.442 66.0714C175.229 66.0714 169.103 67.5897 163.556 70.5042C157.947 73.4577 152.977 77.5717 148.948 82.5945C144.656 87.9061 141.32 93.9809 139.101 100.527C137.452 105.323 136.361 110.307 135.85 115.373L227.033 115.382Z" fill="#25384D"/>
<path d="M173.276 220.105V204.275C170.72 202.738 168.722 200.365 167.593 197.526C166.463 194.686 166.265 191.537 167.029 188.568C167.793 185.599 169.476 182.976 171.818 181.105C174.16 179.233 177.029 178.219 179.98 178.219C182.932 178.219 185.801 179.233 188.143 181.105C190.484 182.976 192.168 185.599 192.932 188.568C193.695 191.537 193.497 194.686 192.368 197.526C191.238 200.365 189.24 202.738 186.684 204.275V220.105C186.684 221.957 185.978 223.733 184.721 225.042C183.464 226.351 181.758 227.087 179.98 227.087C178.202 227.087 176.497 226.351 175.24 225.042C173.983 223.733 173.276 221.957 173.276 220.105Z" fill="white"/>
<path d="M200.094 263.982V245.383C200.092 244.064 200.452 242.772 201.131 241.659C200.505 240.667 200.149 239.517 200.1 238.331C200.05 237.145 200.31 235.967 200.851 234.922C201.392 233.877 202.195 233.004 203.173 232.396C204.152 231.787 205.271 231.466 206.411 231.466H303.033C304.712 221.315 310 212.194 317.843 205.919C325.687 199.644 335.511 196.674 345.362 197.6C355.213 198.526 364.369 203.28 371.006 210.916C377.644 218.553 381.278 228.512 381.185 238.812C381.092 249.112 377.278 258.998 370.504 266.503C363.729 274.008 354.489 278.582 344.623 279.314C334.757 280.047 324.988 276.885 317.26 270.457C309.531 264.029 304.409 254.806 302.914 244.624H237.885C237.91 244.877 237.923 245.131 237.923 245.385V253.924C237.937 254.846 237.775 255.762 237.446 256.618C237.116 257.475 236.627 258.254 236.005 258.912C235.384 259.569 234.643 260.091 233.826 260.447C233.009 260.804 232.132 260.987 231.247 260.987C230.361 260.987 229.484 260.804 228.667 260.447C227.85 260.091 227.109 259.569 226.488 258.912C225.867 258.254 225.377 257.475 225.048 256.618C224.719 255.762 224.556 254.846 224.57 253.924V245.383C224.57 245.129 224.583 244.875 224.609 244.622H213.403C213.429 244.875 213.442 245.129 213.442 245.383V263.982C213.442 265.826 212.738 267.595 211.486 268.899C210.234 270.203 208.535 270.936 206.764 270.936C204.994 270.936 203.295 270.203 202.043 268.899C200.791 267.595 200.087 265.826 200.087 263.982H200.094ZM363.299 238.432C363.294 233.244 361.564 228.219 358.401 224.212C355.238 220.205 350.839 217.463 345.953 216.455C341.067 215.446 335.996 216.233 331.605 218.681C327.214 221.129 323.773 225.087 321.87 229.881C319.966 234.674 319.717 240.007 321.165 244.97C322.614 249.933 325.67 254.22 329.812 257.1C333.955 259.979 338.929 261.275 343.885 260.764C348.842 260.254 353.476 257.97 356.997 254.301C358.997 252.216 360.583 249.742 361.664 247.019C362.746 244.296 363.301 241.378 363.299 238.432Z" fill="#EBC55B"/>
<path d="M200.094 263.982V255.255H201.77V263.982H200.094ZM200.094 246.528V245.383C200.092 244.064 200.452 242.772 201.131 241.659V241.627C200.922 241.284 200.744 240.921 200.6 240.543V240.496L200.576 240.432V240.323V240.31V240.205C200.377 239.585 200.268 238.938 200.251 238.285L201.927 238.239C201.949 239.138 202.212 240.012 202.687 240.763L203.283 241.706L202.702 242.659C202.193 243.494 201.924 244.463 201.926 245.451V246.596L200.094 246.528ZM204.721 231.705C204.984 231.628 205.252 231.57 205.522 231.53H205.536H205.548H205.559H205.571H205.581H205.591H205.628H205.96H205.978H205.997H206.015H206.034H206.052H206.07H206.089H206.107H206.127H206.146H206.154H206.163H206.171H206.179H206.188H206.196H206.295H206.303H206.312H206.32H206.329H206.337H206.345C206.345 231.53 206.345 231.53 206.354 231.53H213.036V233.276H206.365C205.946 233.275 205.529 233.334 205.125 233.45L204.721 231.705ZM221.461 233.211V231.466H229.841V233.211H221.461ZM238.221 233.211V231.466H246.601V233.211H238.221ZM254.981 233.211V231.466H263.361V233.211H254.981ZM271.741 233.211V231.466H280.121V233.211H271.741ZM288.502 233.211V231.466H296.882V233.211H288.502ZM303.47 229.197C303.755 227.91 304.098 226.643 304.501 225.395L304.543 225.264L304.568 225.186L304.584 225.135V225.111L304.601 225.062V225.037V225.013V224.988V224.966V224.943V224.92V224.898V224.877V224.854V224.833V224.81V224.79V224.77V224.749V224.728V224.709V224.688V224.669V224.65V224.629V224.611V224.591V224.571V224.563V224.549V224.529V224.521V224.505V224.493V224.479V224.468V224.451V224.44V224.428V224.413V224.4V224.388V224.376V224.36V224.351V224.332V224.323V224.31V224.289L304.611 224.262V224.248V224.226V224.212L304.621 224.186L304.631 224.159V224.144L304.641 224.114L304.658 224.069L304.668 224.041L304.685 223.995L304.714 223.917C305.06 222.979 305.438 222.056 305.848 221.149L307.357 221.892C306.216 224.414 305.337 227.055 304.735 229.771L303.103 229.378L303.47 229.197ZM310.553 213.523C311.601 212.092 312.738 210.734 313.957 209.458L313.975 209.439L314.051 209.36L314.062 209.339L314.081 209.32L314.154 209.243L314.171 209.226L314.243 209.153L314.258 209.137L314.299 209.109L314.349 209.057L314.364 209.043L314.398 209.008L314.411 208.994L314.441 208.964L314.466 208.934L314.475 208.926L314.486 208.913L314.496 208.903L314.508 208.891L314.518 208.88L314.53 208.868L314.542 208.856L314.558 208.838L314.565 208.828L314.575 208.817L314.587 208.805L314.597 208.795L314.609 208.783L314.619 208.772L314.641 208.76L314.661 208.739L314.674 208.725H314.682L314.696 208.711H314.704L314.733 208.664L314.776 208.62L314.793 208.605L314.81 208.589L314.832 208.568L314.855 208.545L314.9 208.496L314.919 208.479L314.941 208.458L314.987 208.413L315.009 208.39L315.031 208.369C315.44 207.973 315.857 207.586 316.283 207.206L317.371 208.535C315.342 210.341 313.503 212.366 311.884 214.575L310.551 213.516L310.553 213.523ZM323.207 202.277C323.372 202.184 323.54 202.093 323.709 202.003L323.775 201.953H323.798L323.845 201.928L323.867 201.916L323.912 201.892L323.934 201.881L323.956 201.871L323.979 201.859L324.001 201.846L324.019 201.836L324.063 201.813L324.103 201.778H324.128L324.15 201.766L324.169 201.756L324.185 201.747L324.207 201.735L324.226 201.724H324.242L324.264 201.714L324.286 201.703H324.301L324.318 201.695L324.34 201.684H324.355H324.37L324.454 201.604H324.47H324.485L324.504 201.595L324.526 201.585H324.541H324.556L324.621 201.515H324.636H324.651L324.673 201.504L324.692 201.496H324.707H324.723L324.789 201.429H324.804H324.819L324.839 201.419H324.854H324.869L324.94 201.359H324.956H324.97H324.987L325.007 201.349H325.022H325.037L325.059 201.338H325.075H325.09L325.111 201.328L325.129 201.319H325.144H325.161L325.183 201.309H325.198H325.213L325.235 201.298H325.253H325.27L325.313 201.277H325.33L325.349 201.269L325.516 201.08H325.533H325.55L325.571 201.07L325.592 201.061H325.608L325.654 201.04H325.672L325.692 201.03L325.716 201.019L325.736 201.01L325.754 201.002L325.799 200.981L325.878 200.906L325.925 200.885L325.945 200.876L325.967 200.865L325.99 200.855L326.012 200.845L326.032 200.836L326.079 200.815L326.13 200.797L326.177 200.776L326.198 200.766L326.27 200.731L326.297 200.721L326.346 200.7L326.369 200.689L326.441 200.658L326.513 200.626L326.587 200.595L326.611 200.584L326.684 200.553L326.758 200.522L326.857 200.48L326.931 200.448L327.004 200.417L327.172 200.344L327.246 200.312L327.269 200.302L327.343 200.272L327.417 200.242L327.502 200.207L327.526 200.199L327.574 200.18L327.598 200.171L327.621 200.162L327.67 200.143H327.692L327.74 200.124H327.76L327.807 200.104H327.827H327.846L327.869 200.096H327.889H327.906L327.973 200.015L327.997 200.007H328.007H328.02H328.034H328.045H328.059H328.069H328.084H328.101H328.119C329.013 199.658 329.912 199.349 330.817 199.08H330.839H330.861L330.955 198.986L331.417 200.663C330.46 200.949 329.5 201.279 328.568 201.646C327.001 202.26 325.475 202.982 324.001 203.808L323.207 202.27V202.277ZM339.202 197.502C339.699 197.468 340.196 197.444 340.696 197.431H340.837H341.733C341.733 197.431 341.747 197.431 341.753 197.431H341.785V197.415H341.82C341.82 197.415 341.834 197.415 341.842 197.415C341.851 197.415 341.861 197.415 341.871 197.415H342.12H346.104H346.128H346.181H346.206H346.274H346.297H346.359H346.386H346.424H346.476H346.513H346.54H346.602H346.632H346.689H346.723H346.756H346.81H346.847H346.875H346.934H346.966H347.023H347.055H347.088H347.143H347.177H347.21H347.266H347.299H347.353H347.388H347.42H347.477H347.51H347.546L347.303 199.141C345.465 199.009 343.621 199.015 341.785 199.16C340.959 199.16 340.124 199.188 339.305 199.244L339.202 197.502ZM355.057 201.67L355.651 200.033L355.758 200.075H355.766H355.78H355.795H355.803L355.859 200.097C356.25 200.255 356.641 200.418 357.032 200.588L357.055 200.598L357.082 200.611L357.109 200.623H357.127H357.137H357.152H357.163H357.178H357.189H357.204H357.214H357.23H357.24H357.256H357.266H357.285L357.337 200.647L357.357 200.656H357.374H357.384H357.401H357.411H357.427H357.436H357.452H357.461H357.478H357.488H357.506L357.56 200.68L357.639 200.883L357.659 200.892L357.687 200.906H357.706H357.714H357.732H357.741H357.759L357.781 200.916L357.861 200.953L357.883 200.963L357.903 200.972L357.922 200.981L357.942 200.989L357.962 201L358.041 201.08L358.121 201.119L358.146 201.131L358.168 201.141L358.19 201.152L358.212 201.162L358.235 201.174L358.369 201.239L358.393 201.251L358.416 201.263L358.44 201.276L358.465 201.288L358.653 201.38L358.678 201.393C360.03 202.065 361.344 202.818 362.613 203.648L362.636 203.663L362.658 203.677L362.68 203.691L362.703 203.707L362.802 203.772L362.824 203.787L362.843 203.799L362.859 203.812L362.876 203.822L362.893 203.833L362.91 203.845L362.931 203.859L362.956 203.875L362.978 203.888L362.995 203.899H363.003H363.013L362.102 205.363C360.271 204.13 358.341 203.064 356.333 202.178C355.981 202.045 355.517 201.852 355.057 201.67ZM368.424 210.68L369.612 209.458C370.394 210.273 371.135 211.113 371.834 211.98L372.002 212.19L372.022 212.214L372.04 212.238L372.059 212.263L372.079 212.287L372.203 212.444L372.221 212.467L372.238 212.49L372.255 212.512L372.273 212.537L372.356 212.642L372.387 212.683L372.404 212.704L372.419 212.724L372.434 212.743L372.449 212.764L372.466 212.785L372.485 212.809L372.525 212.862L372.543 212.886L372.599 212.949L372.614 212.968L372.627 212.985L372.64 213.003L372.654 213.022L372.669 213.041L372.723 213.109L372.763 213.162L372.778 213.183L372.791 213.2V213.209L372.803 213.226V213.237L372.815 213.252V213.263L372.858 213.298V213.308L372.87 213.324V213.333L372.883 213.35V213.359L372.899 213.38L372.917 213.406L372.932 213.425V213.434L372.944 213.45V213.46L372.954 213.474L372.962 213.486L372.972 213.5L372.981 213.513L372.991 213.527L372.999 213.539L373.058 213.56V213.572L373.068 213.584L373.078 213.596L373.088 213.61L373.096 213.623L373.115 213.647L373.127 213.663L373.14 213.68L373.15 213.692L373.16 213.706L373.168 213.719L373.178 213.732L373.189 213.745L373.199 213.757L373.209 213.771L373.217 213.783L373.225 213.792V213.804L373.244 213.821H373.252L373.262 213.835L373.271 213.848L373.281 213.862L373.289 213.874L373.299 213.888V213.898L373.319 213.928V213.938L373.331 213.954V213.965L373.365 213.996V214.006L373.375 214.022V214.033L373.385 214.047V214.057L373.395 214.073V214.083L373.405 214.099V214.109L373.416 214.125V214.136L373.428 214.151L373.475 214.218L373.489 214.237L373.5 214.254L373.512 214.272L373.524 214.289V214.298L373.535 214.315L373.547 214.333L373.561 214.352L373.728 214.52L373.742 214.539L373.755 214.558L373.768 214.577L373.782 214.596L373.795 214.617L373.894 214.764L373.909 214.787L373.924 214.809L373.975 214.869L373.99 214.891L374.005 214.914L374.105 215.064L374.12 215.087L374.135 215.11L374.151 215.132L374.166 215.157L374.298 215.359L374.315 215.384L374.332 215.408C374.506 215.677 374.677 215.947 374.846 216.218L373.437 217.162C371.99 214.823 370.309 212.651 368.424 210.68ZM377.04 224.643L378.609 224.03C378.72 224.35 378.832 224.672 378.944 224.995L378.954 225.025V225.048V225.058V225.079V225.09V225.111V225.121V225.14V225.153V225.167V225.184V225.196V225.215V225.228V225.247V225.257V225.278V225.287V225.308V225.317V225.336V225.346V225.367V225.39V225.414V225.439V225.463L378.962 225.489L378.971 225.517L378.981 225.547L378.991 225.577L378.999 225.605L379.008 225.634L379.018 225.664C379.643 227.495 380.141 229.37 380.508 231.275L380.533 231.431V231.459V231.487V231.513V231.539V231.565V231.59V231.612V231.635V231.658V231.668V231.689V231.701V231.72V231.733V231.75V231.778V231.797V231.809V231.83V231.839V231.864V231.892L380.607 232.396L378.947 232.647C378.585 229.916 377.946 227.233 377.04 224.643ZM377.979 249.272C378.714 246.59 379.172 243.833 379.344 241.05L381.021 241.163C380.95 242.28 380.838 243.385 380.685 244.479V244.511V244.54V244.572L380.647 244.715V244.745V244.774V244.804V244.834V244.863L380.637 244.924V244.954V244.984V245.012V245.04V245.067V245.095V245.123V245.153V245.181V245.209V245.235V245.261V245.287V245.314V245.34V245.366V245.392V245.418V245.444V245.469V245.493V245.518V245.542V245.565V245.589V245.614V245.636V245.659V245.668V245.691V245.699V245.72V245.731V245.752V245.76V245.781V245.804V245.813V245.835V245.844V245.867V245.876V245.898V245.909V245.93V245.94V245.959V245.972V245.989V246.001V246.02V246.031V246.052V246.062V246.085V246.095V246.116V246.286V246.307V246.317V246.338V246.35V246.368V246.382V246.399V246.413V246.431V246.443V246.462V246.472V246.493V246.504V246.525V246.535V246.556V246.567V246.586V246.598V246.616V246.63V246.647V246.661V246.678V246.691V246.71V246.72V246.741V246.752V246.773V246.783V246.804V246.815V246.836V246.846V246.863V246.877V246.895V246.907V246.925V246.935V246.956V246.966V246.987V246.998V247.019V247.029V247.052V247.062V247.085V247.094V247.115V247.125V247.146V247.158V247.179V247.202V247.211V247.233V247.256V247.281V247.305V247.329V247.354V247.378V247.403V247.427V247.452V247.476V247.502V247.53V247.56L380.097 247.682V247.71V247.738V247.766V247.794V247.822L380.069 247.944V247.974C379.934 248.555 379.788 249.137 379.628 249.719L377.979 249.272ZM370.455 263.888C372.19 261.766 373.703 259.457 374.967 257.001L376.445 257.825V257.835L376.433 257.859L376.351 258.018L376.339 258.041L376.328 258.064L376.316 258.086L376.304 258.109L376.291 258.133L376.22 258.268L376.207 258.292L376.195 258.315L376.184 258.338L376.172 258.36L376.16 258.383L376.076 258.54L376.065 258.563L376.053 258.585L376.041 258.608L376.028 258.631L375.942 258.788L375.929 258.811L375.917 258.833L375.905 258.854L375.894 258.877L375.88 258.901L375.806 259.032L375.793 259.055L375.781 259.078L375.77 259.1L375.758 259.123L375.744 259.146L375.657 259.299L375.644 259.322L375.632 259.343L375.62 259.364L375.609 259.385L375.595 259.408L375.522 259.535L375.508 259.558L375.404 259.725L375.392 259.746L375.381 259.767L375.367 259.79L375.292 259.917L375.279 259.94L375.267 259.961L375.255 259.982L375.243 260.003L375.23 260.024L375.216 260.046L375.156 260.148L375.143 260.17L375.089 260.249L375.077 260.27L375.066 260.291L375.054 260.312L375.041 260.334L374.965 260.458L374.953 260.479L374.942 260.498L374.93 260.518L374.918 260.537L374.905 260.558L374.828 260.682L374.814 260.703L374.803 260.722L374.791 260.741L374.779 260.76L374.767 260.779L374.754 260.8L374.692 260.898L374.678 260.919L374.667 260.938L374.655 260.957L374.643 260.977L374.632 260.996L374.62 261.015L374.606 261.036L374.559 261.109L374.546 261.129L374.534 261.146L374.523 261.163V261.174L374.511 261.191V261.2L374.499 261.218V261.226L374.487 261.244L374.476 261.263L374.417 261.354L374.405 261.373L374.394 261.39V261.399L374.382 261.417V261.425L374.372 261.441V261.451L374.36 261.469V261.478L374.348 261.495V261.504L374.337 261.521L374.295 261.586L374.283 261.603V261.612L374.273 261.628V261.638L374.263 261.654V261.664L374.253 261.68V261.691L374.243 261.706V261.717L374.233 261.732V261.743L374.223 261.759L374.182 261.82V261.828L374.172 261.844V261.855L374.162 261.869V261.881L374.152 261.895V261.907L374.142 261.921L374.134 261.933L374.124 261.947V261.959L374.114 261.973L374.105 261.986L374.095 261.999V262.012L374.085 262.026L374.077 262.038L374.058 262.066V262.076L374.048 262.092V262.102L374.038 262.116L373.728 262.343L373.72 262.357L373.711 262.369L373.701 262.383L373.693 262.396L373.683 262.41V262.422L373.673 262.436L373.665 262.448L373.654 262.462L373.644 262.476L373.636 262.488L373.624 262.504V262.514L373.606 262.541V262.549L373.594 262.567V262.577L373.584 262.593V262.605L373.574 262.619V262.631L373.564 262.645L373.556 262.657L373.546 262.671V262.684L373.535 262.699V262.71L373.524 262.727V262.736L373.51 262.755L373.473 262.808L373.46 262.827V262.836L373.448 262.853V262.863L373.437 262.879V262.89L373.425 262.907V262.916L373.411 262.933L373.398 262.951L373.383 262.97L373.344 263.022L373.329 263.043L373.316 263.061L373.302 263.078V263.087L373.291 263.104V263.113L373.279 263.13V263.139L373.266 263.157L373.251 263.178L373.232 263.204L373.194 263.258L373.177 263.281L373.162 263.3L373.148 263.319L373.135 263.338L373.12 263.357L373.105 263.378L373.086 263.403L373.026 263.483L373.009 263.506L372.994 263.527L372.979 263.548L372.962 263.569L372.723 263.74L372.622 263.872L372.604 263.897L372.585 263.919L372.568 263.942L372.55 263.967L372.428 264.125L372.409 264.15L372.391 264.174L372.371 264.2C372.164 264.466 371.954 264.729 371.742 264.989L370.455 263.888ZM357.815 273.98C360.235 272.791 362.526 271.336 364.649 269.639L365.67 271.023C365.254 271.356 364.833 271.679 364.405 271.994L364.192 272.149L364.167 272.168L364.14 272.187L363.972 272.303L363.947 272.32L363.922 272.337L363.898 272.355L363.873 272.372L363.739 272.467L363.714 272.484L363.691 272.5L363.669 272.515L363.647 272.531L363.624 272.549L363.516 272.624L363.494 272.639L363.474 272.653L363.454 272.667L363.434 272.681L363.412 272.695L363.389 272.711L363.335 272.748L363.308 272.765L363.288 272.779L363.27 272.791L363.251 272.803H363.243L363.226 272.816H363.218L363.201 272.828H363.191L363.174 272.84H363.166L363.146 272.854L363.119 272.872L363.096 272.887H363.087L363.07 272.899H363.06L363.044 272.91H363.034L363.019 272.92H363.007L362.992 272.931H362.98L362.965 272.94H362.953L362.938 272.95H362.926L362.911 272.961H362.9L362.883 272.971L362.863 272.985L362.848 272.995L362.834 273.004H362.821L362.806 273.013H362.794L362.779 273.023H362.767L362.752 273.034H362.74L362.725 273.043H362.713L362.698 273.053H362.688L362.673 273.063H362.663L362.646 273.074H362.638L362.576 273.114L362.559 273.125H362.551L362.534 273.135H362.526L362.509 273.146H362.499L362.482 273.156H362.472L362.455 273.166H362.447L362.429 273.179L362.408 273.191L362.315 273.25L362.294 273.262L362.276 273.275L362.258 273.287L362.237 273.299L362.217 273.311L362.196 273.325L362.072 273.402L362.05 273.416L362.028 273.43L362.006 273.444L361.983 273.458L361.807 273.566L361.782 273.582L361.756 273.598C360.763 274.201 359.744 274.761 358.698 275.275L357.815 273.98ZM342.301 277.703C344.978 277.667 347.643 277.335 350.252 276.711L350.629 278.411H350.604H350.581H350.557H350.532H350.507H350.484H350.46H350.435H350.41H350.385H350.36H350.334H350.309H350.286H350.262H350.237H350.212H350.189H350.165H350.142H350.118H350.095H350.071H350.048H350.024H350.001H349.979H349.956H349.932H349.909H349.887H349.864H349.84H349.818H349.798H349.79H349.77H349.748H349.739H349.718H349.709H349.688H349.679H349.657H349.426H349.404H349.384H349.374H349.354H349.346H349.326H349.304H349.295H349.274H349.265H349.243H349.235H349.213H349.203H349.181H349.173H349.155H349.143H349.124H349.091H349.071H349.061H349.041H349.031H349.009H348.999H348.979H348.969H348.947H348.937H348.917H348.907H348.89H348.876H348.86H348.846H348.829H348.818H348.799H348.788H348.767H348.756H348.736H348.724H348.704H348.692H348.674H348.66H348.645H348.63H348.617H348.601H348.586H348.571H348.56H348.541H348.529H348.511H348.499H348.481H348.469H348.454H348.439H348.42H348.402H348.39H348.37H348.36H348.34H348.33H348.31H348.3H348.28H348.244H348.223H348.213H348.191H348.182H348.159H348.136H348.112H348.089H348.062H348.015H347.988H347.961H347.934H347.909H347.882H347.854L347.774 278.424H347.742H347.712H347.681H347.651L347.507 278.446H347.477H347.445C346.056 278.651 344.657 278.779 343.255 278.829H343.191H343.159H342.417L342.301 277.703ZM326.019 276.022L326.689 274.423C327.249 274.68 327.824 274.924 328.397 275.151C330.322 275.915 332.303 276.512 334.322 276.937L333.987 278.647C333.836 278.616 333.685 278.583 333.534 278.549H333.511H333.487H333.464H333.439L333.358 278.532H333.336H333.318H333.31H333.293H333.283H333.266H333.256H333.241H333.231H333.216H333.204H333.189H333.177H333.164H333.127H333.11H333.1H333.083H333.073H333.057H333.048H333.031H333.001H332.984H332.966H332.948H332.926L332.803 278.502H332.78H332.757H332.733C331.377 278.17 330.038 277.762 328.724 277.28H328.701H328.679H328.655L328.488 277.219H328.468H328.449H328.431H328.412H328.394L328.305 277.186H328.287H328.27H328.253H328.245H328.23H328.221H328.206H328.196H328.181H328.173H328.158H328.149L328.096 277.165H328.084H328.07H328.059H328.047H328.034H328.022H328.008H327.997H327.983H327.972H327.958H327.948H327.933H327.923H327.906H327.898L327.873 277.155L327.846 277.144H327.827H327.817H327.801H327.79H327.774H327.762H327.747H327.735H327.72H327.708H327.692H327.682H327.663H327.655L327.628 277.134H327.62H327.603H327.591H327.576H327.564H327.551H327.537H327.524H327.511H327.497H327.484H327.472H327.457H327.447H327.432L327.39 277.116H327.371H327.353H327.336H327.328H327.311H327.303H327.284H327.266H327.246L327.147 277.074L327.123 277.066L327.102 277.057L327.08 277.048L327.056 277.038L326.889 276.963L326.865 276.952L326.842 276.942L326.674 276.867L326.652 276.856L326.631 276.848L326.609 276.837L326.587 276.827L326.492 276.785H326.473H326.456H326.446H326.431H326.42H326.406H326.393H326.381H326.364H326.354L326.332 276.774L326.019 276.022ZM312.554 265.857L313.801 264.691C314.845 265.902 315.96 267.044 317.139 268.112C317.977 268.871 318.857 269.599 319.752 270.274L318.769 271.686C318.312 271.337 317.861 270.981 317.418 270.618L317.398 270.601L317.377 270.585L317.359 270.569L317.341 270.554L317.322 270.54L317.305 270.526L317.289 270.512L317.272 270.498L317.257 270.486L317.242 270.473L317.227 270.461L317.213 270.449L317.2 270.438L317.188 270.428H317.18L317.168 270.417H317.158L317.146 270.409L317.136 270.4L317.126 270.391L317.114 270.383H317.104L317.093 270.372H317.082L317.071 270.362H317.062L317.051 270.351H317.042L317.029 270.341L317.015 270.328L316.912 270.198L316.896 270.185L316.881 270.171L316.865 270.157L316.848 270.143L316.831 270.128L316.813 270.112L316.794 270.096L316.776 270.081L316.756 270.063L316.736 270.046L316.715 270.028L316.695 270.011C316.485 269.829 316.277 269.645 316.072 269.458L316.053 269.442L316.04 269.43L316.023 269.414L316.013 269.403L315.998 269.389H315.988H315.98L315.97 269.381L315.951 269.363L315.939 269.353L315.901 269.318L315.859 269.279C314.694 268.207 313.59 267.064 312.554 265.857ZM304.295 250.824L305.892 250.3C306.7 252.958 307.778 255.518 309.106 257.938L307.652 258.811C307.348 258.257 307.056 257.695 306.777 257.126L306.752 257.077L306.74 257.053L306.716 257.004L306.705 256.98L306.681 256.933L306.671 256.91L306.661 256.887L306.651 256.865L306.641 256.844L306.631 256.824L306.607 256.758L306.597 256.737L306.589 256.72L306.579 256.7L306.569 256.681V256.664L306.559 256.645L306.52 256.584V256.568L306.512 256.549V256.533V256.522V256.508L306.504 256.489V256.481V256.467V256.454V256.44V256.43V256.412V256.402V256.392V256.376V256.365V256.355V256.337V256.327V256.316V256.299V256.289V256.276V256.264V256.248V256.238V256.22V256.21V256.198L306.495 256.179L306.485 256.158V256.144L306.475 256.121L306.465 256.098V256.084L306.455 256.062L306.435 256.02L306.423 255.994L306.403 255.95L306.391 255.922L306.371 255.878L306.358 255.85L306.338 255.805L306.304 255.73C305.817 254.633 305.377 253.513 304.985 252.372L304.968 252.325L304.958 252.295L304.943 252.248L304.933 252.218L304.918 252.173L304.91 252.147V252.133L304.901 252.107V252.082V252.068V252.044L304.893 252.018V252.004V251.981V251.958V251.946V251.937V251.916V251.902V251.887V251.874V251.864V251.847V251.834V251.824V251.806V251.796V251.784V251.768V251.756V251.745V251.726V251.717L304.509 251.522V251.51V251.494V251.484V251.464V251.456V251.44V251.421V251.412V251.393V251.377V251.356V251.335V251.318V251.297V251.274V251.251V251.229V251.204V251.18V251.155L304.494 251.106V251.082L304.479 251.031V251.005L304.462 250.953L304.445 250.897L304.295 250.824ZM292.264 244.631V242.886H300.644V244.631H292.264ZM275.504 244.631V242.886H283.884V244.631H275.504ZM258.744 244.631V242.886H267.124V244.631H258.744ZM241.984 244.631V242.886H250.364V244.631H241.984ZM235.489 256.69C235.988 255.863 236.253 254.907 236.252 253.931V249.078H237.928V255.173V255.192V255.226V255.247V255.268V255.276V255.297V255.318V255.327V255.341V255.362V255.383V255.412V255.435V255.458C237.762 256.222 237.472 256.952 237.072 257.615L235.489 256.69ZM224.595 254.421L226.271 254.297C226.345 255.393 226.75 256.437 227.429 257.279C228.108 258.12 229.026 258.715 230.051 258.978L229.645 260.671C228.936 260.487 228.26 260.182 227.646 259.769L227.612 259.746L227.595 259.734L227.579 259.722L227.562 259.71L227.538 259.692L227.515 259.675L227.498 259.662L227.481 259.65L227.466 259.638L227.451 259.626L227.436 259.614L227.421 259.601L227.408 259.587L227.394 259.573H227.386L227.376 259.563L227.361 259.547L227.346 259.531L227.331 259.516L227.316 259.5L227.3 259.484L227.28 259.462L227.265 259.444L227.25 259.427L227.233 259.409L227.217 259.392L227.197 259.369L227.176 259.345L227.156 259.32L226.228 258.503L226.208 258.479L226.188 258.455L226.172 258.435L226.152 258.411L226.102 258.346L226.072 258.306L226.022 258.24C225.185 257.146 224.686 255.813 224.592 254.418L224.595 254.421ZM217.263 244.628V242.882H226.481L226.283 244.813C226.263 245.003 226.253 245.195 226.253 245.387V245.694H224.577V245.387C224.577 245.133 224.59 244.879 224.615 244.626L217.263 244.628ZM211.774 258.067V249.34H213.45V258.067H211.774ZM206.183 270.911L206.33 269.166C206.476 269.18 206.625 269.187 206.773 269.187C207.753 269.187 208.711 268.887 209.529 268.325C210.347 267.763 210.988 266.963 211.373 266.024L212.914 266.712C212.511 267.686 211.901 268.553 211.129 269.245L211.107 269.264L211.085 269.283L211.063 269.302L211.047 269.316L211.025 269.335L211.003 269.355L210.986 269.369L210.976 269.377L210.964 269.386L210.948 269.4L210.931 269.412L210.914 269.426L210.899 269.438L210.884 269.451L210.869 269.463L210.854 269.475L210.839 269.487L210.824 269.498H210.812H210.8H210.788H210.78H210.772H210.763H210.755H210.738H210.73H210.721H210.713H210.705H210.696H210.686H210.678H210.669H210.661H210.653H210.643H210.634H210.626H210.617H210.609H210.592H210.584H210.567H210.559H210.542H210.534H210.525H210.515H210.507H210.498H210.49H210.482H210.473H210.465H210.446H210.428H210.418H210.41H210.391H210.383H210.374H210.356H210.348H210.339H210.331H210.322H210.314H210.297H210.289H210.272H210.264H210.255H210.239H210.23H210.214H210.205H210.188H210.16H210.13H210.101H210.093H210.084H210.074H210.056H210.036H210.006H209.987H209.977H209.959H209.949H209.919H209.9H209.892H209.875H209.865H209.846H209.836H209.806H209.788H209.778H209.759H209.749H209.731H209.721H209.702H209.692H209.682H209.674H209.664H209.645H209.635H209.617H209.587H209.557H209.526H209.496H209.466H209.436H209.406H209.376H209.357H209.347H209.317H209.298H209.288H209.27H209.26H209.241H209.231H209.213H209.203H209.184H209.174H209.156H209.126H209.116H209.097H209.087H209.069H209.059H209.04H209.01H208.98H208.948H208.916H208.884H206.798C206.798 269.498 206.798 269.498 206.788 269.498H206.764H206.741H206.625H206.608C206.593 269.498 206.578 269.498 206.563 269.498C206.426 270.449 206.298 270.92 206.179 270.908L206.183 270.911ZM200.094 263.982H201.77C201.77 264.376 201.812 264.769 201.897 265.153L200.265 265.546C200.229 265.387 200.199 265.225 200.174 265.061V265.028L200.166 264.965V264.92V264.878V264.811V264.78V264.71V264.682V263.984L200.094 263.982ZM362.227 231.399L363.82 230.855C364.588 233.3 364.978 235.857 364.974 238.43H363.298V237.119V237.068V237.051V237V236.981V236.93V236.896V236.843V236.826V236.773V236.756C363.2 235.352 362.976 233.962 362.628 232.602V232.586L362.616 232.537V232.523V232.509L362.608 232.478V232.464V232.45V232.436V232.42V232.408V232.396V232.382V232.366L362.499 232.323V232.312V232.302V232.286V232.274V232.263V232.253V232.239V232.227V232.148V232.138V232.127V232.082V232.07V232.061V232.047V232.038V232.028L362.489 231.994V231.984V231.974L362.474 231.923V231.911L362.459 231.858V231.846L362.331 231.425L362.227 231.399ZM351.615 218.455L352.383 216.904C354.525 218.056 356.482 219.548 358.183 221.327C358.609 221.77 359.021 222.234 359.41 222.709L358.136 223.844C358.03 223.716 357.923 223.588 357.815 223.461L357.804 223.449L357.773 223.411L357.763 223.398L357.741 223.374L357.732 223.364L357.722 223.351L357.701 223.327L357.692 223.316L357.67 223.292L357.662 223.281V223.273L357.652 223.261L357.642 223.248L357.633 223.238L357.623 223.227L357.612 223.215L357.602 223.205V223.196L357.58 223.173V223.165L357.571 223.154L357.561 223.142L357.551 223.131V223.123L357.471 223.072L357.461 223.06L357.452 223.049L357.444 223.039L357.422 223.014V223.006L357.414 222.995L357.404 222.983L357.394 222.973L357.385 222.962L357.364 222.938L357.354 222.927L357.344 222.917L357.322 222.892L357.312 222.882L357.29 222.857L357.28 222.847L357.27 222.836L357.248 222.812L357.24 222.803L357.23 222.793L357.208 222.768L357.198 222.758L357.176 222.733L357.166 222.723L357.158 222.714L357.136 222.69L357.126 222.679L357.116 222.669L357.104 222.657L357.095 222.648L357.085 222.636L357.075 222.625L357.065 222.615L357.055 222.604L357.045 222.594L357.035 222.583L357.022 222.569L357.007 222.554L356.982 222.529L356.956 222.505L356.93 222.479H356.921L356.884 222.444L356.847 222.407L356.288 221.85C354.881 220.506 353.309 219.364 351.613 218.452L351.615 218.455ZM334.83 215.345C337.081 214.612 339.426 214.24 341.785 214.242C342.44 214.242 343.101 214.27 343.749 214.328L343.61 216.073C343.413 216.056 343.214 216.041 343.015 216.029H343.002H342.989H342.937H342.849H342.764H342.682H342.583H342.466H342.298H342.266H342.202H342.171H342.089H342.008H341.884H341.815C341.815 216.029 341.815 216.029 341.805 216.029H341.783H341.763C341.763 216.029 341.763 216.029 341.753 216.029H341.666H341.499H341.432H341.381H341.333H341.266H341.214H341.165H341.15H340.982H340.878H340.863H340.766H340.749H340.635H340.604H340.587H340.572H340.543H340.511H340.498H340.451H340.434H340.402H340.354H340.339H340.324H340.292H340.277H340.245H340.208H340.159H340.144H340.111H340.094H340.045H339.997H339.982H339.933H339.885C339.807 216.036 339.73 216.044 339.653 216.052C338.188 216.201 336.741 216.507 335.336 216.965L334.83 215.345ZM321.294 227.086C322.377 224.966 323.757 223.025 325.387 221.327C325.89 220.803 326.413 220.304 326.952 219.834L328.027 221.173C327.798 221.372 327.574 221.577 327.356 221.787L327.345 221.798L327.247 221.892L327.237 221.903L327.227 221.913L327.217 221.922L327.207 221.931L327.197 221.939L327.187 221.95L327.175 221.96L327.139 221.995L327.128 222.006L327.118 222.014H327.11H327.102L327.078 222.037H327.07L327.058 222.048L327.035 222.07L327.023 222.082L327.013 222.093L327.003 222.103L326.979 222.128L326.954 222.154L326.946 222.163L326.919 222.191C325.49 223.716 324.277 225.445 323.316 227.326L321.294 227.086ZM318.596 238.431C318.596 237.634 318.633 236.829 318.707 236.039L320.383 236.213L320.346 236.644V236.951C320.323 237.316 320.309 237.681 320.302 238.047V240.299V240.33V240.351V240.383V240.54V240.573V240.592V240.625V240.643V240.676V240.709V240.728V240.762V240.781V240.814V240.919V240.952V240.969V241.002V241.02V241.053V241.086V241.104V241.154V241.187V241.205V241.238V241.256V241.289V241.339V241.372V241.39V241.423V241.474V241.524V241.575L320.314 241.66C320.463 242.733 320.687 243.792 320.984 244.83L319.377 245.326C318.799 243.079 318.533 240.757 318.588 238.431H318.596ZM323.731 253.616L325.035 252.52C325.182 252.709 325.331 252.895 325.483 253.079L325.493 253.091L325.501 253.101V253.11V253.119V253.128L325.538 253.171L325.546 253.182L325.642 253.267L325.65 253.278L325.659 253.288L325.669 253.299L325.679 253.311C325.933 253.61 326.197 253.901 326.468 254.184L326.48 254.196L326.49 254.206L326.5 254.217L326.51 254.227L326.52 254.238L326.528 254.246L326.54 254.259L326.555 254.274L326.569 254.288L326.584 254.304L326.597 254.318L326.612 254.334L326.627 254.349L326.659 254.383L326.691 254.416L326.706 254.431L326.723 254.449L326.74 254.465L326.773 254.498L326.807 254.531L326.859 254.583L326.894 254.618C327.878 255.609 328.951 256.501 330.097 257.282L330.135 257.308L330.194 257.348L330.232 257.374L330.271 257.4L330.31 257.427L330.328 257.439L330.348 257.451L330.367 257.463L330.403 257.488L330.44 257.512L330.457 257.523L330.475 257.535L330.492 257.545L330.511 257.557L330.527 257.568L330.544 257.578L330.563 257.591L330.578 257.599L330.594 257.61L330.608 257.619L330.625 257.629L330.64 257.638L330.655 257.648L330.672 257.659H330.685L330.702 257.669H330.713L330.73 257.68H330.742H330.755H330.769H330.779L330.794 257.69H330.804L330.819 257.699H330.827H330.837H330.846H330.856H330.869H330.879H330.888H330.896H330.91H330.92H330.93H330.94H330.95H330.963H330.973L330.992 257.709H331.002L331.022 257.722H331.034L331.07 257.742H331.082L331.106 257.756H331.117L331.158 257.779L331.198 257.802L330.387 259.329C328.566 258.302 326.884 257.026 325.387 255.536C324.803 254.927 324.251 254.286 323.731 253.616ZM339.15 262.467L339.338 260.732L339.462 260.746H339.477H339.509H339.571H339.657H339.685H340.188H340.34H340.835H340.969H341.13H341.242H341.264H341.381H341.515H341.649H341.748C341.748 260.746 341.748 260.746 341.76 260.746C341.76 260.746 341.772 260.746 341.778 260.746H341.794C341.794 260.746 341.794 260.746 341.805 260.746C341.805 260.746 341.815 260.746 341.82 260.746H341.889H342.006H342.169H342.253H342.368H342.404H342.486H344.919H344.933H344.963H344.976H344.995H345.045H345.073H345.09H345.107H345.159H345.187H345.204H345.221H345.236H345.253H345.27H345.298H345.35H345.365H345.384H345.412H345.425H345.444H345.462H345.477H345.494H345.524H345.555H345.571H345.588H345.605H345.633H345.65H345.667H345.684H345.702H345.739H345.769H345.799H345.813H345.831H345.846H345.876H345.906H345.918H345.937H345.952H345.982H346.014H346.024H346.044H346.074H346.104H346.134H346.148H346.168H346.183H346.201H346.215H346.243H346.257H346.277H346.289H346.309H346.322H346.352H346.366H346.386H346.409H346.441H346.471H346.481H346.501H346.512H346.543H346.574H346.604H346.617H346.649H346.679H346.711H346.744H346.765H346.775H346.806H346.837H346.85H346.87H346.884H346.914H346.946H346.956H346.987H347.019H347.053L347.096 260.734H347.128L347.162 260.725L347.239 260.704L347.271 260.696L347.314 260.683L347.348 260.675L347.381 260.666L347.603 260.603H347.624L348.079 262.284C346.024 262.885 343.9 263.188 341.767 263.186C340.883 262.998 340.011 262.758 339.154 262.465L339.15 262.467ZM355.056 256.098C355.614 255.64 356.154 255.151 356.673 254.63L356.688 254.616L356.703 254.603L356.747 254.559L356.759 254.547L356.772 254.533L356.801 254.489L356.812 254.477L356.824 254.465L356.837 254.451L356.852 254.437L356.866 254.423L356.876 254.412L356.886 254.402L356.913 254.374L356.923 254.363L356.933 254.353L356.943 254.342L356.956 254.328L356.971 254.313L356.983 254.301L356.998 254.285L357.01 254.273L357.022 254.26L357.037 254.245L357.049 254.232L357.06 254.22L357.074 254.205L357.085 254.192L357.099 254.178L357.114 254.163L357.126 254.15L357.141 254.135L357.152 254.121L357.163 254.109L357.176 254.093L357.188 254.081L357.199 254.068L357.213 254.053L357.225 254.041L357.238 254.025L357.253 254.009L357.265 253.997L357.28 253.981L357.293 253.965L357.305 253.953L357.318 253.938L357.33 253.924L357.471 253.791L357.484 253.775L357.494 253.763L357.508 253.749L357.521 253.733L357.533 253.721L357.548 253.705L357.561 253.69L357.573 253.677L357.587 253.662L357.598 253.648L357.639 253.597L357.652 253.581L357.664 253.568L357.677 253.552L357.692 253.536L357.704 253.522L357.732 253.489L357.744 253.475L357.773 253.442L357.786 253.428L357.801 253.41L357.815 253.396L357.828 253.381L357.841 253.363L357.853 253.349L357.882 253.316L357.933 253.267L357.962 253.234L357.974 253.22L357.987 253.203L358.001 253.187L358.014 253.171L358.029 253.154L358.041 253.138L358.069 253.105L358.083 253.089L358.111 253.054L358.125 253.039L358.153 253.004L358.182 252.969L358.195 252.953L358.223 252.918L358.237 252.903L358.265 252.868L358.279 252.852L358.307 252.817L358.321 252.8L358.336 252.782L358.349 252.766L358.378 252.731L358.391 252.716L358.418 252.681L358.43 252.665L358.456 252.63L358.47 252.613L358.483 252.595L358.497 252.578L358.523 252.543L358.535 252.527L358.562 252.492L358.574 252.477L358.601 252.442L358.612 252.426L358.626 252.409L358.637 252.393L358.651 252.375L358.664 252.358L358.676 252.342L358.703 252.307L358.715 252.292L358.741 252.257L358.753 252.241L358.766 252.224L358.778 252.208L358.79 252.192L358.803 252.175L358.815 252.159L358.84 252.124L358.85 252.11L358.875 252.075L358.885 252.061L358.899 252.044L358.911 252.028L358.921 252.012L358.932 251.995L358.942 251.981L358.954 251.965L358.966 251.948L358.976 251.934L359.001 251.899L359.011 251.885L359.023 251.867L359.147 251.696L359.155 251.684L359.167 251.667L359.175 251.655L359.184 251.642L359.196 251.627V251.616L359.206 251.602L359.216 251.588V251.576L359.227 251.56V251.548V251.538L359.315 251.456V251.445V251.436V251.426L359.323 251.414V251.405V251.394V251.384V251.374V251.365V251.354L359.331 251.342V251.333V251.325L359.345 251.304V251.295L359.358 251.274V251.264V251.253L359.373 251.232V251.22V251.208L359.388 251.183V251.171L359.413 251.133V251.12L359.44 251.08L359.477 251.024C359.766 250.574 360.039 250.115 360.295 249.647L361.751 250.511C360.774 252.339 359.575 254.028 358.183 255.536C357.525 256.223 356.828 256.869 356.097 257.47L355.059 256.1L355.056 256.098ZM363.122 241.301L363.148 241.093V241.025V241.004V240.957V240.933V240.891V240.542V240.502V240.386V240.344V240.318V240.276V240.231V240.189V240.165V240.121V240.097V240.032V240.002V239.959V239.934V239.87V239.845V239.802V239.777V239.713V238.431H364.824C364.824 239.464 364.761 240.495 364.638 241.519L363.122 241.301Z" fill="#5A7894"/>
<path d="M200.094 263.982V255.255H201.77V263.982M200.094 263.982H201.77M200.094 263.982L200.166 263.984V264.682V264.71V264.78V264.811V264.878V264.92V264.965L200.174 265.028V265.061C200.199 265.225 200.229 265.387 200.265 265.546L201.897 265.153C201.812 264.769 201.77 264.376 201.77 263.982M200.094 246.528V245.383C200.092 244.064 200.452 242.772 201.131 241.659V241.627C200.922 241.284 200.744 240.921 200.6 240.543V240.496L200.576 240.432V240.323V240.31V240.205C200.377 239.585 200.267 238.938 200.251 238.285L201.927 238.239C201.949 239.138 202.212 240.012 202.687 240.763L203.283 241.706L202.702 242.659C202.193 243.494 201.924 244.463 201.926 245.451V246.596L200.094 246.528ZM204.721 231.705C204.984 231.628 205.252 231.57 205.522 231.53H205.536H205.548H205.559H205.571H205.581H205.591H205.628H205.96H205.978H205.997H206.015H206.034H206.052H206.07H206.089H206.107H206.127H206.146H206.154H206.163H206.171H206.179H206.188H206.196H206.295H206.303H206.312H206.32H206.329H206.337H206.345C206.345 231.53 206.345 231.53 206.354 231.53H213.036V233.276H206.365C205.946 233.275 205.529 233.334 205.125 233.45L204.721 231.705ZM221.461 233.211V231.466H229.841V233.211H221.461ZM238.221 233.211V231.466H246.601V233.211H238.221ZM254.981 233.211V231.466H263.361V233.211H254.981ZM271.741 233.211V231.466H280.121V233.211H271.741ZM288.502 233.211V231.466H296.882V233.211H288.502ZM303.47 229.197C303.755 227.91 304.098 226.643 304.501 225.395L304.543 225.264L304.568 225.186L304.584 225.135V225.111L304.601 225.062V225.037V225.013V224.988V224.966V224.943V224.92V224.898V224.877V224.854V224.833V224.81V224.79V224.77V224.749V224.728V224.709V224.688V224.669V224.65V224.629V224.611V224.591V224.571V224.563V224.549V224.529V224.521V224.505V224.493V224.479V224.468V224.451V224.44V224.428V224.413V224.4V224.388V224.376V224.36V224.351V224.332V224.323V224.31V224.289L304.611 224.262V224.248V224.226V224.212L304.621 224.186L304.631 224.159V224.144L304.641 224.114L304.658 224.069L304.668 224.041L304.685 223.995L304.714 223.917C305.06 222.979 305.438 222.056 305.848 221.149L307.357 221.892C306.216 224.414 305.337 227.055 304.735 229.771L303.103 229.378L303.47 229.197ZM310.553 213.523C311.601 212.092 312.738 210.734 313.957 209.458L313.975 209.439L314.051 209.36L314.062 209.339L314.081 209.32L314.154 209.243L314.171 209.226L314.243 209.153L314.258 209.137L314.299 209.109L314.349 209.057L314.364 209.043L314.398 209.008L314.411 208.994L314.441 208.964L314.466 208.934L314.475 208.926L314.486 208.913L314.496 208.903L314.508 208.891L314.518 208.88L314.53 208.868L314.542 208.856L314.558 208.838L314.565 208.828L314.575 208.817L314.587 208.805L314.597 208.795L314.609 208.783L314.619 208.772L314.641 208.76L314.661 208.739L314.674 208.725H314.682L314.696 208.711H314.704L314.733 208.664L314.776 208.62L314.793 208.605L314.81 208.589L314.832 208.568L314.855 208.545L314.9 208.496L314.919 208.479L314.941 208.458L314.987 208.413L315.009 208.39L315.031 208.369C315.44 207.973 315.857 207.586 316.283 207.206L317.371 208.535C315.342 210.341 313.503 212.366 311.884 214.575L310.551 213.516L310.553 213.523ZM323.207 202.277C323.372 202.184 323.54 202.093 323.709 202.003L323.775 201.953H323.798L323.845 201.928L323.867 201.916L323.912 201.892L323.934 201.881L323.956 201.871L323.979 201.859L324.001 201.846L324.019 201.836L324.063 201.813L324.103 201.778H324.128L324.15 201.766L324.169 201.756L324.185 201.747L324.207 201.735L324.226 201.724H324.242L324.264 201.714L324.286 201.703H324.301L324.318 201.695L324.34 201.684H324.355H324.37L324.454 201.604H324.47H324.485L324.504 201.595L324.526 201.585H324.541H324.556L324.621 201.515H324.636H324.651L324.673 201.504L324.692 201.496H324.707H324.723L324.789 201.429H324.804H324.819L324.839 201.419H324.854H324.869L324.94 201.359H324.956H324.97H324.987L325.007 201.349H325.022H325.037L325.059 201.338H325.075H325.09L325.111 201.328L325.129 201.319H325.144H325.161L325.183 201.309H325.198H325.213L325.235 201.298H325.253H325.27L325.313 201.277H325.33L325.349 201.269L325.516 201.08H325.533H325.55L325.571 201.07L325.592 201.061H325.608L325.654 201.04H325.672L325.692 201.03L325.716 201.019L325.736 201.01L325.754 201.002L325.799 200.981L325.878 200.906L325.925 200.885L325.945 200.876L325.967 200.865L325.99 200.855L326.012 200.845L326.032 200.836L326.079 200.815L326.13 200.797L326.177 200.776L326.198 200.766L326.27 200.731L326.297 200.721L326.346 200.7L326.369 200.689L326.441 200.658L326.513 200.626L326.587 200.595L326.611 200.584L326.684 200.553L326.758 200.522L326.857 200.48L326.931 200.448L327.004 200.417L327.172 200.344L327.246 200.312L327.269 200.302L327.343 200.272L327.417 200.242L327.502 200.207L327.526 200.199L327.574 200.18L327.598 200.171L327.621 200.162L327.67 200.143H327.692L327.74 200.124H327.76L327.807 200.104H327.827H327.846L327.869 200.096H327.889H327.906L327.973 200.015L327.997 200.007H328.007H328.02H328.034H328.045H328.059H328.069H328.084H328.101H328.119C329.013 199.658 329.912 199.349 330.817 199.08H330.839H330.861L330.955 198.986L331.417 200.663C330.46 200.949 329.5 201.279 328.568 201.646C327.001 202.26 325.475 202.982 324.001 203.808L323.207 202.27V202.277ZM339.202 197.502C339.699 197.468 340.196 197.444 340.696 197.431H340.837H341.733C341.733 197.431 341.747 197.431 341.753 197.431H341.785V197.415H341.82C341.82 197.415 341.834 197.415 341.842 197.415C341.851 197.415 341.861 197.415 341.871 197.415H342.12H346.104H346.128H346.181H346.206H346.274H346.297H346.359H346.386H346.424H346.476H346.513H346.54H346.602H346.632H346.689H346.723H346.756H346.81H346.847H346.875H346.934H346.966H347.023H347.055H347.088H347.143H347.177H347.21H347.266H347.299H347.353H347.388H347.42H347.477H347.51H347.546L347.303 199.141C345.465 199.009 343.621 199.015 341.785 199.16C340.959 199.16 340.124 199.188 339.305 199.244L339.202 197.502ZM355.057 201.67L355.651 200.033L355.758 200.075H355.766H355.78H355.795H355.803L355.859 200.097C356.25 200.255 356.641 200.418 357.032 200.588L357.055 200.598L357.082 200.611L357.109 200.623H357.127H357.137H357.152H357.163H357.178H357.189H357.204H357.214H357.23H357.24H357.256H357.266H357.285L357.337 200.647L357.357 200.656H357.374H357.384H357.401H357.411H357.427H357.436H357.452H357.461H357.478H357.488H357.506L357.56 200.68L357.639 200.883L357.659 200.892L357.687 200.906H357.706H357.714H357.732H357.741H357.759L357.781 200.916L357.861 200.953L357.883 200.963L357.903 200.972L357.922 200.981L357.942 200.989L357.962 201L358.041 201.08L358.121 201.119L358.146 201.131L358.168 201.141L358.19 201.152L358.212 201.162L358.235 201.174L358.369 201.239L358.393 201.251L358.416 201.263L358.44 201.276L358.465 201.288L358.653 201.38L358.678 201.393C360.03 202.065 361.344 202.818 362.613 203.648L362.636 203.663L362.658 203.677L362.68 203.691L362.703 203.707L362.802 203.772L362.824 203.787L362.843 203.799L362.859 203.812L362.876 203.822L362.893 203.833L362.91 203.845L362.931 203.859L362.956 203.875L362.978 203.888L362.995 203.899H363.003H363.013L362.102 205.363C360.271 204.13 358.341 203.064 356.333 202.178C355.981 202.045 355.517 201.852 355.057 201.67ZM368.424 210.68L369.612 209.458C370.394 210.273 371.135 211.113 371.834 211.98L372.002 212.19L372.022 212.214L372.04 212.238L372.059 212.263L372.079 212.287L372.203 212.444L372.221 212.467L372.238 212.49L372.255 212.512L372.273 212.537L372.356 212.642L372.387 212.683L372.404 212.704L372.419 212.724L372.434 212.743L372.449 212.764L372.466 212.785L372.485 212.809L372.525 212.862L372.543 212.886L372.599 212.949L372.614 212.968L372.627 212.985L372.64 213.003L372.654 213.022L372.669 213.041L372.723 213.109L372.763 213.162L372.778 213.183L372.791 213.2V213.209L372.803 213.226V213.237L372.815 213.252V213.263L372.858 213.298V213.308L372.87 213.324V213.333L372.883 213.35V213.359L372.899 213.38L372.917 213.406L372.932 213.425V213.434L372.944 213.45V213.46L372.954 213.474L372.962 213.486L372.972 213.5L372.981 213.513L372.991 213.527L372.999 213.539L373.058 213.56V213.572L373.068 213.584L373.078 213.596L373.088 213.61L373.096 213.623L373.115 213.647L373.127 213.663L373.14 213.68L373.15 213.692L373.16 213.706L373.168 213.719L373.178 213.732L373.189 213.745L373.199 213.757L373.209 213.771L373.217 213.783L373.225 213.792V213.804L373.244 213.821H373.252L373.262 213.835L373.271 213.848L373.281 213.862L373.289 213.874L373.299 213.888V213.898L373.319 213.928V213.938L373.331 213.954V213.965L373.365 213.996V214.006L373.375 214.022V214.033L373.385 214.047V214.057L373.395 214.073V214.083L373.405 214.099V214.109L373.416 214.125V214.136L373.428 214.151L373.475 214.218L373.489 214.237L373.5 214.254L373.512 214.272L373.524 214.289V214.298L373.535 214.315L373.547 214.333L373.561 214.352L373.728 214.52L373.742 214.539L373.755 214.558L373.768 214.577L373.782 214.596L373.795 214.617L373.894 214.764L373.909 214.787L373.924 214.809L373.975 214.869L373.99 214.891L374.005 214.914L374.105 215.064L374.12 215.087L374.135 215.11L374.151 215.132L374.166 215.157L374.298 215.359L374.315 215.384L374.332 215.408C374.506 215.677 374.677 215.947 374.846 216.218L373.437 217.162C371.99 214.823 370.309 212.651 368.424 210.68ZM377.04 224.643L378.609 224.03C378.72 224.35 378.832 224.672 378.944 224.995L378.954 225.025V225.048V225.058V225.079V225.09V225.111V225.121V225.14V225.153V225.167V225.184V225.196V225.215V225.228V225.247V225.257V225.278V225.287V225.308V225.317V225.336V225.346V225.367V225.39V225.414V225.439V225.463L378.962 225.489L378.971 225.517L378.981 225.547L378.991 225.577L378.999 225.605L379.008 225.634L379.018 225.664C379.643 227.495 380.141 229.37 380.508 231.275L380.533 231.431V231.459V231.487V231.513V231.539V231.565V231.59V231.612V231.635V231.658V231.668V231.689V231.701V231.72V231.733V231.75V231.778V231.797V231.809V231.83V231.839V231.864V231.892L380.607 232.396L378.947 232.647C378.585 229.916 377.946 227.233 377.04 224.643ZM377.979 249.272C378.714 246.59 379.172 243.833 379.344 241.05L381.021 241.163C380.95 242.28 380.838 243.385 380.685 244.479V244.511V244.54V244.572L380.647 244.715V244.745V244.774V244.804V244.834V244.863L380.637 244.924V244.954V244.984V245.012V245.04V245.067V245.095V245.123V245.153V245.181V245.209V245.235V245.261V245.287V245.314V245.34V245.366V245.392V245.418V245.444V245.469V245.493V245.518V245.542V245.565V245.589V245.614V245.636V245.659V245.668V245.691V245.699V245.72V245.731V245.752V245.76V245.781V245.804V245.813V245.835V245.844V245.867V245.876V245.898V245.909V245.93V245.94V245.959V245.972V245.989V246.001V246.02V246.031V246.052V246.062V246.085V246.095V246.116V246.286V246.307V246.317V246.338V246.35V246.368V246.382V246.399V246.413V246.431V246.443V246.462V246.472V246.493V246.504V246.525V246.535V246.556V246.567V246.586V246.598V246.616V246.63V246.647V246.661V246.678V246.691V246.71V246.72V246.741V246.752V246.773V246.783V246.804V246.815V246.836V246.846V246.863V246.877V246.895V246.907V246.925V246.935V246.956V246.966V246.987V246.998V247.019V247.029V247.052V247.062V247.085V247.094V247.115V247.125V247.146V247.158V247.179V247.202V247.211V247.233V247.256V247.281V247.305V247.329V247.354V247.378V247.403V247.427V247.452V247.476V247.502V247.53V247.56L380.097 247.682V247.71V247.738V247.766V247.794V247.822L380.069 247.944V247.974C379.934 248.555 379.788 249.137 379.628 249.719L377.979 249.272ZM370.455 263.888C372.19 261.766 373.703 259.457 374.967 257.001L376.445 257.825V257.835L376.433 257.859L376.351 258.018L376.339 258.041L376.328 258.064L376.316 258.086L376.304 258.109L376.291 258.133L376.22 258.268L376.207 258.292L376.195 258.315L376.184 258.338L376.172 258.36L376.16 258.383L376.076 258.54L376.065 258.563L376.053 258.585L376.041 258.608L376.028 258.631L375.942 258.788L375.929 258.811L375.917 258.833L375.905 258.854L375.894 258.877L375.88 258.901L375.806 259.032L375.793 259.055L375.781 259.078L375.77 259.1L375.758 259.123L375.744 259.146L375.657 259.299L375.644 259.322L375.632 259.343L375.62 259.364L375.609 259.385L375.595 259.408L375.522 259.535L375.508 259.558L375.404 259.725L375.392 259.746L375.381 259.767L375.367 259.79L375.292 259.917L375.279 259.94L375.267 259.961L375.255 259.982L375.243 260.003L375.23 260.024L375.216 260.046L375.156 260.148L375.143 260.17L375.089 260.249L375.077 260.27L375.066 260.291L375.054 260.312L375.041 260.334L374.965 260.458L374.953 260.479L374.942 260.498L374.93 260.518L374.918 260.537L374.905 260.558L374.828 260.682L374.814 260.703L374.803 260.722L374.791 260.741L374.779 260.76L374.767 260.779L374.754 260.8L374.692 260.898L374.678 260.919L374.667 260.938L374.655 260.957L374.643 260.977L374.632 260.996L374.62 261.015L374.606 261.036L374.559 261.109L374.546 261.129L374.534 261.146L374.523 261.163V261.174L374.511 261.191V261.2L374.499 261.218V261.226L374.487 261.244L374.476 261.263L374.417 261.354L374.405 261.373L374.394 261.39V261.399L374.382 261.417V261.425L374.372 261.441V261.451L374.36 261.469V261.478L374.348 261.495V261.504L374.337 261.521L374.295 261.586L374.283 261.603V261.612L374.273 261.628V261.638L374.263 261.654V261.664L374.253 261.68V261.691L374.243 261.706V261.717L374.233 261.732V261.743L374.223 261.759L374.182 261.82V261.828L374.172 261.844V261.855L374.162 261.869V261.881L374.152 261.895V261.907L374.142 261.921L374.134 261.933L374.124 261.947V261.959L374.114 261.973L374.105 261.986L374.095 261.999V262.012L374.085 262.026L374.077 262.038L374.058 262.066V262.076L374.048 262.092V262.102L374.038 262.116L373.728 262.343L373.72 262.357L373.711 262.369L373.701 262.383L373.693 262.396L373.683 262.41V262.422L373.673 262.436L373.665 262.448L373.654 262.462L373.644 262.476L373.636 262.488L373.624 262.504V262.514L373.606 262.541V262.549L373.594 262.567V262.577L373.584 262.593V262.605L373.574 262.619V262.631L373.564 262.645L373.556 262.657L373.546 262.671V262.684L373.535 262.699V262.71L373.524 262.727V262.736L373.51 262.755L373.473 262.808L373.46 262.827V262.836L373.448 262.853V262.863L373.437 262.879V262.89L373.425 262.907V262.916L373.411 262.933L373.398 262.951L373.383 262.97L373.344 263.022L373.329 263.043L373.316 263.061L373.302 263.078V263.087L373.291 263.104V263.113L373.279 263.13V263.139L373.266 263.157L373.251 263.178L373.232 263.204L373.194 263.258L373.177 263.281L373.162 263.3L373.148 263.319L373.135 263.338L373.12 263.357L373.105 263.378L373.086 263.403L373.026 263.483L373.009 263.506L372.994 263.527L372.979 263.548L372.962 263.569L372.723 263.74L372.622 263.872L372.604 263.897L372.585 263.919L372.568 263.942L372.55 263.967L372.428 264.125L372.409 264.15L372.391 264.174L372.371 264.2C372.164 264.466 371.954 264.729 371.742 264.989L370.455 263.888ZM357.815 273.98C360.235 272.791 362.526 271.336 364.649 269.639L365.67 271.023C365.254 271.356 364.833 271.679 364.405 271.994L364.192 272.149L364.167 272.168L364.14 272.187L363.972 272.303L363.947 272.32L363.922 272.337L363.898 272.355L363.873 272.372L363.739 272.467L363.714 272.484L363.691 272.5L363.669 272.515L363.647 272.531L363.624 272.549L363.516 272.624L363.494 272.639L363.474 272.653L363.454 272.667L363.434 272.681L363.412 272.695L363.389 272.711L363.335 272.748L363.308 272.765L363.288 272.779L363.27 272.791L363.251 272.803H363.243L363.226 272.816H363.218L363.201 272.828H363.191L363.174 272.84H363.166L363.146 272.854L363.119 272.872L363.096 272.887H363.087L363.07 272.899H363.06L363.044 272.91H363.034L363.019 272.92H363.007L362.992 272.931H362.98L362.965 272.94H362.953L362.938 272.95H362.926L362.911 272.961H362.9L362.883 272.971L362.863 272.985L362.848 272.995L362.834 273.004H362.821L362.806 273.013H362.794L362.779 273.023H362.767L362.752 273.034H362.74L362.725 273.043H362.713L362.698 273.053H362.688L362.673 273.063H362.663L362.646 273.074H362.638L362.576 273.114L362.559 273.125H362.551L362.534 273.135H362.526L362.509 273.146H362.499L362.482 273.156H362.472L362.455 273.166H362.447L362.429 273.179L362.408 273.191L362.315 273.25L362.294 273.262L362.276 273.275L362.258 273.287L362.237 273.299L362.217 273.311L362.196 273.325L362.072 273.402L362.05 273.416L362.028 273.43L362.006 273.444L361.983 273.458L361.807 273.566L361.782 273.582L361.756 273.598C360.763 274.201 359.744 274.761 358.698 275.275L357.815 273.98ZM342.301 277.703C344.978 277.667 347.643 277.335 350.252 276.711L350.629 278.411H350.604H350.581H350.557H350.532H350.507H350.484H350.46H350.435H350.41H350.385H350.36H350.334H350.309H350.286H350.262H350.237H350.212H350.189H350.165H350.142H350.118H350.095H350.071H350.048H350.024H350.001H349.979H349.956H349.932H349.909H349.887H349.864H349.84H349.818H349.798H349.79H349.77H349.748H349.739H349.718H349.709H349.688H349.679H349.657H349.426H349.404H349.384H349.374H349.354H349.346H349.326H349.304H349.295H349.274H349.265H349.243H349.235H349.213H349.203H349.181H349.173H349.155H349.143H349.124H349.091H349.071H349.061H349.041H349.031H349.009H348.999H348.979H348.969H348.947H348.937H348.917H348.907H348.89H348.876H348.86H348.846H348.829H348.818H348.799H348.788H348.767H348.756H348.736H348.724H348.704H348.692H348.674H348.66H348.645H348.63H348.617H348.601H348.586H348.571H348.56H348.541H348.529H348.511H348.499H348.481H348.469H348.454H348.439H348.42H348.402H348.39H348.37H348.36H348.34H348.33H348.31H348.3H348.28H348.244H348.223H348.213H348.191H348.182H348.159H348.136H348.112H348.089H348.062H348.015H347.988H347.961H347.934H347.909H347.882H347.854L347.774 278.424H347.742H347.712H347.681H347.651L347.507 278.446H347.477H347.445C346.056 278.651 344.657 278.779 343.255 278.829H343.191H343.159H342.417L342.301 277.703ZM326.019 276.022L326.689 274.423C327.249 274.68 327.824 274.924 328.397 275.151C330.322 275.915 332.303 276.512 334.322 276.937L333.987 278.647C333.836 278.616 333.685 278.583 333.534 278.549H333.511H333.487H333.464H333.439L333.358 278.532H333.336H333.318H333.31H333.293H333.283H333.266H333.256H333.241H333.231H333.216H333.204H333.189H333.177H333.164H333.127H333.11H333.1H333.083H333.073H333.057H333.048H333.031H333.001H332.984H332.966H332.948H332.926L332.803 278.502H332.78H332.757H332.733C331.377 278.17 330.038 277.762 328.724 277.28H328.701H328.679H328.655L328.488 277.219H328.468H328.449H328.431H328.412H328.394L328.305 277.186H328.287H328.27H328.253H328.245H328.23H328.221H328.206H328.196H328.181H328.173H328.158H328.149L328.096 277.165H328.084H328.07H328.059H328.047H328.034H328.022H328.008H327.997H327.983H327.972H327.958H327.948H327.933H327.923H327.906H327.898L327.873 277.155L327.846 277.144H327.827H327.817H327.801H327.79H327.774H327.762H327.747H327.735H327.72H327.708H327.692H327.682H327.663H327.655L327.628 277.134H327.62H327.603H327.591H327.576H327.564H327.551H327.537H327.524H327.511H327.497H327.484H327.472H327.457H327.447H327.432L327.39 277.116H327.371H327.353H327.336H327.328H327.311H327.303H327.284H327.266H327.246L327.147 277.074L327.123 277.066L327.102 277.057L327.08 277.048L327.056 277.038L326.889 276.963L326.865 276.952L326.842 276.942L326.674 276.867L326.652 276.856L326.631 276.848L326.609 276.837L326.587 276.827L326.492 276.785H326.473H326.456H326.446H326.431H326.42H326.406H326.393H326.381H326.364H326.354L326.332 276.774L326.019 276.022ZM312.554 265.857L313.801 264.691C314.845 265.902 315.96 267.044 317.139 268.112C317.977 268.871 318.857 269.599 319.752 270.274L318.769 271.686C318.312 271.337 317.861 270.981 317.418 270.618L317.398 270.601L317.377 270.585L317.359 270.569L317.341 270.554L317.322 270.54L317.305 270.526L317.289 270.512L317.272 270.498L317.257 270.486L317.242 270.473L317.227 270.461L317.213 270.449L317.2 270.438L317.188 270.428H317.18L317.168 270.417H317.158L317.146 270.409L317.136 270.4L317.126 270.391L317.114 270.383H317.104L317.093 270.372H317.082L317.071 270.362H317.062L317.051 270.351H317.042L317.029 270.341L317.015 270.328L316.912 270.198L316.896 270.185L316.881 270.171L316.865 270.157L316.848 270.143L316.831 270.128L316.813 270.112L316.794 270.096L316.776 270.081L316.756 270.063L316.736 270.046L316.715 270.028L316.695 270.011C316.485 269.829 316.277 269.645 316.072 269.458L316.053 269.442L316.04 269.43L316.023 269.414L316.013 269.403L315.998 269.389H315.988H315.98L315.97 269.381L315.951 269.363L315.939 269.353L315.901 269.318L315.859 269.279C314.694 268.207 313.59 267.064 312.554 265.857ZM304.295 250.824L305.892 250.3C306.7 252.958 307.778 255.518 309.106 257.938L307.652 258.811C307.348 258.257 307.056 257.695 306.777 257.126L306.752 257.077L306.74 257.053L306.716 257.004L306.705 256.98L306.681 256.933L306.671 256.91L306.661 256.887L306.651 256.865L306.641 256.844L306.631 256.824L306.607 256.758L306.597 256.737L306.589 256.72L306.579 256.7L306.569 256.681V256.664L306.559 256.645L306.52 256.584V256.568L306.512 256.549V256.533V256.522V256.508L306.504 256.489V256.481V256.467V256.454V256.44V256.43V256.412V256.402V256.392V256.376V256.365V256.355V256.337V256.327V256.316V256.299V256.289V256.276V256.264V256.248V256.238V256.22V256.21V256.198L306.495 256.179L306.485 256.158V256.144L306.475 256.121L306.465 256.098V256.084L306.455 256.062L306.435 256.02L306.423 255.994L306.403 255.95L306.391 255.922L306.371 255.878L306.358 255.85L306.338 255.805L306.304 255.73C305.817 254.633 305.377 253.513 304.985 252.372L304.968 252.325L304.958 252.295L304.943 252.248L304.933 252.218L304.918 252.173L304.91 252.147V252.133L304.901 252.107V252.082V252.068V252.044L304.893 252.018V252.004V251.981V251.958V251.946V251.937V251.916V251.902V251.887V251.874V251.864V251.847V251.834V251.824V251.806V251.796V251.784V251.768V251.756V251.745V251.726V251.717L304.509 251.522V251.51V251.494V251.484V251.464V251.456V251.44V251.421V251.412V251.393V251.377V251.356V251.335V251.318V251.297V251.274V251.251V251.229V251.204V251.18V251.155L304.494 251.106V251.082L304.479 251.031V251.005L304.462 250.953L304.445 250.897L304.295 250.824ZM292.264 244.631V242.886H300.644V244.631H292.264ZM275.504 244.631V242.886H283.884V244.631H275.504ZM258.744 244.631V242.886H267.124V244.631H258.744ZM241.984 244.631V242.886H250.364V244.631H241.984ZM235.489 256.69C235.988 255.863 236.253 254.907 236.252 253.931V249.078H237.928V255.173V255.192V255.226V255.247V255.268V255.276V255.297V255.318V255.327V255.341V255.362V255.383V255.412V255.435V255.458C237.762 256.222 237.472 256.952 237.072 257.615L235.489 256.69ZM224.595 254.421L226.271 254.297C226.345 255.393 226.75 256.437 227.429 257.279C228.108 258.12 229.026 258.715 230.051 258.978L229.645 260.671C228.936 260.487 228.26 260.182 227.646 259.769L227.612 259.746L227.595 259.734L227.579 259.722L227.562 259.71L227.538 259.692L227.515 259.675L227.498 259.662L227.481 259.65L227.466 259.638L227.451 259.626L227.436 259.614L227.421 259.601L227.408 259.587L227.394 259.573H227.386L227.376 259.563L227.361 259.547L227.346 259.531L227.331 259.516L227.316 259.5L227.3 259.484L227.28 259.462L227.265 259.444L227.25 259.427L227.233 259.409L227.217 259.392L227.197 259.369L227.176 259.345L227.156 259.32L226.228 258.503L226.208 258.479L226.188 258.455L226.172 258.435L226.152 258.411L226.102 258.346L226.072 258.306L226.022 258.24C225.185 257.146 224.686 255.813 224.592 254.418L224.595 254.421ZM217.263 244.628V242.882H226.481L226.283 244.813C226.263 245.003 226.253 245.195 226.253 245.387V245.694H224.577V245.387C224.577 245.133 224.59 244.879 224.615 244.626L217.263 244.628ZM211.774 258.067V249.34H213.45V258.067H211.774ZM206.183 270.911L206.33 269.166C206.476 269.18 206.625 269.187 206.773 269.187C207.753 269.187 208.711 268.887 209.529 268.325C210.347 267.763 210.988 266.963 211.373 266.024L212.914 266.712C212.511 267.686 211.901 268.553 211.129 269.245L211.107 269.264L211.085 269.283L211.063 269.302L211.047 269.316L211.025 269.335L211.003 269.355L210.986 269.369L210.976 269.377L210.964 269.386L210.948 269.4L210.931 269.412L210.914 269.426L210.899 269.438L210.884 269.451L210.869 269.463L210.854 269.475L210.839 269.487L210.824 269.498H210.812H210.8H210.788H210.78H210.772H210.763H210.755H210.738H210.73H210.721H210.713H210.705H210.696H210.686H210.678H210.669H210.661H210.653H210.643H210.634H210.626H210.617H210.609H210.592H210.584H210.567H210.559H210.542H210.534H210.525H210.515H210.507H210.498H210.49H210.482H210.473H210.465H210.446H210.428H210.418H210.41H210.391H210.383H210.374H210.356H210.348H210.339H210.331H210.322H210.314H210.297H210.289H210.272H210.264H210.255H210.239H210.23H210.214H210.205H210.188H210.16H210.13H210.101H210.093H210.084H210.074H210.056H210.036H210.006H209.987H209.977H209.959H209.949H209.919H209.9H209.892H209.875H209.865H209.846H209.836H209.806H209.788H209.778H209.759H209.749H209.731H209.721H209.702H209.692H209.682H209.674H209.664H209.645H209.635H209.617H209.587H209.557H209.526H209.496H209.466H209.436H209.406H209.376H209.357H209.347H209.317H209.298H209.288H209.27H209.26H209.241H209.231H209.213H209.203H209.184H209.174H209.156H209.126H209.116H209.097H209.087H209.069H209.059H209.04H209.01H208.98H208.948H208.916H208.884H206.798C206.798 269.498 206.798 269.498 206.788 269.498H206.764H206.741H206.625H206.608C206.593 269.498 206.578 269.498 206.563 269.498C206.426 270.449 206.298 270.92 206.179 270.908L206.183 270.911ZM362.227 231.399L363.82 230.855C364.588 233.3 364.978 235.857 364.974 238.43H363.298V237.119V237.068V237.051V237V236.981V236.93V236.896V236.843V236.826V236.773V236.756C363.2 235.352 362.976 233.962 362.628 232.602V232.586L362.616 232.537V232.523V232.509L362.608 232.478V232.464V232.45V232.436V232.42V232.408V232.396V232.382V232.366L362.499 232.323V232.312V232.302V232.286V232.274V232.263V232.253V232.239V232.227V232.148V232.138V232.127V232.082V232.07V232.061V232.047V232.038V232.028L362.489 231.994V231.984V231.974L362.474 231.923V231.911L362.459 231.858V231.846L362.331 231.425L362.227 231.399ZM351.615 218.455L352.383 216.904C354.525 218.056 356.482 219.548 358.183 221.327C358.609 221.77 359.021 222.234 359.41 222.709L358.136 223.844C358.03 223.716 357.923 223.588 357.815 223.461L357.804 223.449L357.773 223.411L357.763 223.398L357.741 223.374L357.732 223.364L357.722 223.351L357.701 223.327L357.692 223.316L357.67 223.292L357.662 223.281V223.273L357.652 223.261L357.642 223.248L357.633 223.238L357.623 223.227L357.612 223.215L357.602 223.205V223.196L357.58 223.173V223.165L357.571 223.154L357.561 223.142L357.551 223.131V223.123L357.471 223.072L357.461 223.06L357.452 223.049L357.444 223.039L357.422 223.014V223.006L357.414 222.995L357.404 222.983L357.394 222.973L357.385 222.962L357.364 222.938L357.354 222.927L357.344 222.917L357.322 222.892L357.312 222.882L357.29 222.857L357.28 222.847L357.27 222.836L357.248 222.812L357.24 222.803L357.23 222.793L357.208 222.768L357.198 222.758L357.176 222.733L357.166 222.723L357.158 222.714L357.136 222.69L357.126 222.679L357.116 222.669L357.104 222.657L357.095 222.648L357.085 222.636L357.075 222.625L357.065 222.615L357.055 222.604L357.045 222.594L357.035 222.583L357.022 222.569L357.007 222.554L356.982 222.529L356.956 222.505L356.93 222.479H356.921L356.884 222.444L356.847 222.407L356.288 221.85C354.881 220.506 353.309 219.364 351.613 218.452L351.615 218.455ZM334.83 215.345C337.081 214.612 339.426 214.24 341.785 214.242C342.44 214.242 343.101 214.27 343.749 214.328L343.61 216.073C343.413 216.056 343.214 216.041 343.015 216.029H343.002H342.989H342.937H342.849H342.764H342.682H342.583H342.466H342.298H342.266H342.202H342.171H342.089H342.008H341.884H341.815C341.815 216.029 341.815 216.029 341.805 216.029H341.783H341.763C341.763 216.029 341.763 216.029 341.753 216.029H341.666H341.499H341.432H341.381H341.333H341.266H341.214H341.165H341.15H340.982H340.878H340.863H340.766H340.749H340.635H340.604H340.587H340.572H340.543H340.511H340.498H340.451H340.434H340.402H340.354H340.339H340.324H340.292H340.277H340.245H340.208H340.159H340.144H340.111H340.094H340.045H339.997H339.982H339.933H339.885C339.807 216.036 339.73 216.044 339.653 216.052C338.188 216.201 336.741 216.507 335.336 216.965L334.83 215.345ZM321.294 227.086C322.377 224.966 323.757 223.025 325.387 221.327C325.89 220.803 326.413 220.304 326.952 219.834L328.027 221.173C327.798 221.372 327.574 221.577 327.356 221.787L327.345 221.798L327.247 221.892L327.237 221.903L327.227 221.913L327.217 221.922L327.207 221.931L327.197 221.939L327.187 221.95L327.175 221.96L327.139 221.995L327.128 222.006L327.118 222.014H327.11H327.102L327.078 222.037H327.07L327.058 222.048L327.035 222.07L327.023 222.082L327.013 222.093L327.003 222.103L326.979 222.128L326.954 222.154L326.946 222.163L326.919 222.191C325.49 223.716 324.277 225.445 323.316 227.326L321.294 227.086ZM318.596 238.431C318.596 237.634 318.633 236.829 318.707 236.039L320.383 236.213L320.346 236.644V236.951C320.323 237.316 320.309 237.681 320.302 238.047V240.299V240.33V240.351V240.383V240.54V240.573V240.592V240.625V240.643V240.676V240.709V240.728V240.762V240.781V240.814V240.919V240.952V240.969V241.002V241.02V241.053V241.086V241.104V241.154V241.187V241.205V241.238V241.256V241.289V241.339V241.372V241.39V241.423V241.474V241.524V241.575L320.314 241.66C320.463 242.733 320.687 243.792 320.984 244.83L319.377 245.326C318.799 243.079 318.533 240.757 318.588 238.431H318.596ZM323.731 253.616L325.035 252.52C325.182 252.709 325.331 252.895 325.483 253.079L325.493 253.091L325.501 253.101V253.11V253.119V253.128L325.538 253.171L325.546 253.182L325.642 253.267L325.65 253.278L325.659 253.288L325.669 253.299L325.679 253.311C325.933 253.61 326.197 253.901 326.468 254.184L326.48 254.196L326.49 254.206L326.5 254.217L326.51 254.227L326.52 254.238L326.528 254.246L326.54 254.259L326.555 254.274L326.569 254.288L326.584 254.304L326.597 254.318L326.612 254.334L326.627 254.349L326.659 254.383L326.691 254.416L326.706 254.431L326.723 254.449L326.74 254.465L326.773 254.498L326.807 254.531L326.859 254.583L326.894 254.618C327.878 255.609 328.951 256.501 330.097 257.282L330.135 257.308L330.194 257.348L330.232 257.374L330.271 257.4L330.31 257.427L330.328 257.439L330.348 257.451L330.367 257.463L330.403 257.488L330.44 257.512L330.457 257.523L330.475 257.535L330.492 257.545L330.511 257.557L330.527 257.568L330.544 257.578L330.563 257.591L330.578 257.599L330.594 257.61L330.608 257.619L330.625 257.629L330.64 257.638L330.655 257.648L330.672 257.659H330.685L330.702 257.669H330.713L330.73 257.68H330.742H330.755H330.769H330.779L330.794 257.69H330.804L330.819 257.699H330.827H330.837H330.846H330.856H330.869H330.879H330.888H330.896H330.91H330.92H330.93H330.94H330.95H330.963H330.973L330.992 257.709H331.002L331.022 257.722H331.034L331.07 257.742H331.082L331.106 257.756H331.117L331.158 257.779L331.198 257.802L330.387 259.329C328.566 258.302 326.884 257.026 325.387 255.536C324.803 254.927 324.251 254.286 323.731 253.616ZM339.15 262.467L339.338 260.732L339.462 260.746H339.477H339.509H339.571H339.657H339.685H340.188H340.34H340.835H340.969H341.13H341.242H341.264H341.381H341.515H341.649H341.748C341.748 260.746 341.748 260.746 341.76 260.746C341.76 260.746 341.772 260.746 341.778 260.746H341.794C341.794 260.746 341.794 260.746 341.805 260.746C341.805 260.746 341.815 260.746 341.82 260.746H341.889H342.006H342.169H342.253H342.368H342.404H342.486H344.919H344.933H344.963H344.976H344.995H345.045H345.073H345.09H345.107H345.159H345.187H345.204H345.221H345.236H345.253H345.27H345.298H345.35H345.365H345.384H345.412H345.425H345.444H345.462H345.477H345.494H345.524H345.555H345.571H345.588H345.605H345.633H345.65H345.667H345.684H345.702H345.739H345.769H345.799H345.813H345.831H345.846H345.876H345.906H345.918H345.937H345.952H345.982H346.014H346.024H346.044H346.074H346.104H346.134H346.148H346.168H346.183H346.201H346.215H346.243H346.257H346.277H346.289H346.309H346.322H346.352H346.366H346.386H346.409H346.441H346.471H346.481H346.501H346.512H346.543H346.574H346.604H346.617H346.649H346.679H346.711H346.744H346.765H346.775H346.806H346.837H346.85H346.87H346.884H346.914H346.946H346.956H346.987H347.019H347.053L347.096 260.734H347.128L347.162 260.725L347.239 260.704L347.271 260.696L347.314 260.683L347.348 260.675L347.381 260.666L347.603 260.603H347.624L348.079 262.284C346.024 262.885 343.9 263.188 341.767 263.186C340.883 262.998 340.011 262.758 339.154 262.465L339.15 262.467ZM355.056 256.098C355.614 255.64 356.154 255.151 356.673 254.63L356.688 254.616L356.703 254.603L356.747 254.559L356.759 254.547L356.772 254.533L356.801 254.489L356.812 254.477L356.824 254.465L356.837 254.451L356.852 254.437L356.866 254.423L356.876 254.412L356.886 254.402L356.913 254.374L356.923 254.363L356.933 254.353L356.943 254.342L356.956 254.328L356.971 254.313L356.983 254.301L356.998 254.285L357.01 254.273L357.022 254.26L357.037 254.245L357.049 254.232L357.06 254.22L357.074 254.205L357.085 254.192L357.099 254.178L357.114 254.163L357.126 254.15L357.141 254.135L357.152 254.121L357.163 254.109L357.176 254.093L357.188 254.081L357.199 254.068L357.213 254.053L357.225 254.041L357.238 254.025L357.253 254.009L357.265 253.997L357.28 253.981L357.293 253.965L357.305 253.953L357.318 253.938L357.33 253.924L357.471 253.791L357.484 253.775L357.494 253.763L357.508 253.749L357.521 253.733L357.533 253.721L357.548 253.705L357.561 253.69L357.573 253.677L357.587 253.662L357.598 253.648L357.639 253.597L357.652 253.581L357.664 253.568L357.677 253.552L357.692 253.536L357.704 253.522L357.732 253.489L357.744 253.475L357.773 253.442L357.786 253.428L357.801 253.41L357.815 253.396L357.828 253.381L357.841 253.363L357.853 253.349L357.882 253.316L357.933 253.267L357.962 253.234L357.974 253.22L357.987 253.203L358.001 253.187L358.014 253.171L358.029 253.154L358.041 253.138L358.069 253.105L358.083 253.089L358.111 253.054L358.125 253.039L358.153 253.004L358.182 252.969L358.195 252.953L358.223 252.918L358.237 252.903L358.265 252.868L358.279 252.852L358.307 252.817L358.321 252.8L358.336 252.782L358.349 252.766L358.378 252.731L358.391 252.716L358.418 252.681L358.43 252.665L358.456 252.63L358.47 252.613L358.483 252.595L358.497 252.578L358.523 252.543L358.535 252.527L358.562 252.492L358.574 252.477L358.601 252.442L358.612 252.426L358.626 252.409L358.637 252.393L358.651 252.375L358.664 252.358L358.676 252.342L358.703 252.307L358.715 252.292L358.741 252.257L358.753 252.241L358.766 252.224L358.778 252.208L358.79 252.192L358.803 252.175L358.815 252.159L358.84 252.124L358.85 252.11L358.875 252.075L358.885 252.061L358.899 252.044L358.911 252.028L358.921 252.012L358.932 251.995L358.942 251.981L358.954 251.965L358.966 251.948L358.976 251.934L359.001 251.899L359.011 251.885L359.023 251.867L359.147 251.696L359.155 251.684L359.167 251.667L359.175 251.655L359.184 251.642L359.196 251.627V251.616L359.206 251.602L359.216 251.588V251.576L359.227 251.56V251.548V251.538L359.315 251.456V251.445V251.436V251.426L359.323 251.414V251.405V251.394V251.384V251.374V251.365V251.354L359.331 251.342V251.333V251.325L359.345 251.304V251.295L359.358 251.274V251.264V251.253L359.373 251.232V251.22V251.208L359.388 251.183V251.171L359.413 251.133V251.12L359.44 251.08L359.477 251.024C359.766 250.574 360.039 250.115 360.295 249.647L361.751 250.511C360.774 252.339 359.575 254.028 358.183 255.536C357.525 256.223 356.828 256.869 356.097 257.47L355.059 256.1L355.056 256.098ZM363.122 241.301L363.148 241.093V241.025V241.004V240.957V240.933V240.891V240.542V240.502V240.386V240.344V240.318V240.276V240.231V240.189V240.165V240.121V240.097V240.032V240.002V239.959V239.934V239.87V239.845V239.802V239.777V239.713V238.431H364.824C364.824 239.464 364.761 240.495 364.638 241.519L363.122 241.301Z" stroke="#38857B"/>
</g>
<defs>
<filter id="filter0_d_298_13385" x="0" y="0" width="400" height="372" filterUnits="userSpaceOnUse" color-interpolation-filters="sRGB">
<feFlood flood-opacity="0" result="BackgroundImageFix"/>
<feColorMatrix in="SourceAlpha" type="matrix" values="0 0 0 0 0 0 0 0 0 0 0 0 0 0 0 0 0 0 127 0" result="hardAlpha"/>
<feOffset dy="4"/>
<feGaussianBlur stdDeviation="2"/>
<feComposite in2="hardAlpha" operator="out"/>
<feColorMatrix type="matrix" values="0 0 0 0 0 0 0 0 0 0 0 0 0 0 0 0 0 0 0.25 0"/>
<feBlend mode="normal" in2="BackgroundImageFix" result="effect1_dropShadow_298_13385"/>
<feBlend mode="normal" in="SourceGraphic" in2="effect1_dropShadow_298_13385" result="shape"/>
</filter>
</defs>
</svg>
