<svg width="24" height="24" viewBox="0 0 24 24" fill="none" xmlns="http://www.w3.org/2000/svg">
<path d="M13.1217 20.5344L12.1305 21.5514C12.0314 21.6537 11.9135 21.7348 11.7836 21.7902C11.6538 21.8456 11.5146 21.8741 11.374 21.8741C11.2333 21.8741 11.0941 21.8456 10.9643 21.7902C10.8344 21.7348 10.7165 21.6537 10.6174 21.5514L1.93953 12.6528C1.83985 12.5511 1.76074 12.4301 1.70676 12.2969C1.65279 12.1637 1.625 12.0208 1.625 11.8765C1.625 11.7323 1.65279 11.5894 1.70676 11.4562C1.76074 11.323 1.83985 11.202 1.93953 11.1003L10.6174 2.19679C10.7165 2.09452 10.8344 2.01336 10.9643 1.95798C11.0941 1.90259 11.2333 1.87408 11.374 1.87408C11.5146 1.87408 11.6538 1.90259 11.7836 1.95798C11.9135 2.01336 12.0314 2.09452 12.1305 2.19679L13.1217 3.21372C13.2222 3.31738 13.3016 3.44054 13.3552 3.57602C13.4088 3.7115 13.4356 3.85659 13.434 4.00281C13.4323 4.14902 13.4023 4.29344 13.3457 4.42762C13.289 4.5618 13.2069 4.68305 13.1041 4.7843L7.72556 10.0415L20.5538 10.0415C20.6946 10.0411 20.8341 10.0694 20.9643 10.1245C21.0944 10.1797 21.2127 10.2607 21.3122 10.3629C21.4118 10.4652 21.4907 10.5865 21.5443 10.7201C21.598 10.8537 21.6254 10.9969 21.625 11.1414V12.6068C21.6253 12.7512 21.5978 12.8943 21.5441 13.0278C21.4904 13.1613 21.4115 13.2826 21.3119 13.3847C21.2124 13.4868 21.0942 13.5678 20.9641 13.6229C20.834 13.678 20.6945 13.7062 20.5538 13.7059L7.72476 13.7059L13.1033 18.963C13.2073 19.0637 13.2904 19.1847 13.3479 19.319C13.4053 19.4533 13.4357 19.5981 13.4375 19.7447C13.4392 19.8914 13.4121 20.0369 13.3579 20.1725C13.3036 20.3082 13.2233 20.4313 13.1217 20.5344Z" fill="#38857B"/>
</svg>
