<svg width="28" height="28" viewBox="0 0 28 28" fill="none" xmlns="http://www.w3.org/2000/svg">
<path d="M10.4357 0.666803C8.1448 0.653516 5.9145 3.07171 6.93268 6.07453H3.09026C2.44731 6.07453 1.83069 6.3545 1.37606 6.85285C0.921426 7.35121 0.666016 8.02712 0.666016 8.73189V11.3893C0.666016 11.7416 0.793721 12.0796 1.02104 12.3288C1.24835 12.5779 1.55666 12.7179 1.87814 12.7179H12.7872V8.73189H15.2115V12.7179H26.1206C26.442 12.7179 26.7503 12.5779 26.9777 12.3288C27.205 12.0796 27.3327 11.7416 27.3327 11.3893V8.73189C27.3327 8.02712 27.0773 7.35121 26.6226 6.85285C26.168 6.3545 25.5514 6.07453 24.9084 6.07453H21.066C22.4842 1.72975 17.1509 -1.3395 14.6903 2.40737L13.9993 3.41717L13.3084 2.3808C12.5448 1.19827 11.4903 0.680089 10.4357 0.666803ZM10.363 3.41717C11.4418 3.41717 11.9872 4.85215 11.2236 5.68921C10.46 6.52628 9.15086 5.92838 9.15086 4.74585C9.15086 4.39346 9.27857 4.05551 9.50589 3.80633C9.7332 3.55716 10.0415 3.41717 10.363 3.41717ZM17.6357 3.41717C18.7145 3.41717 19.26 4.85215 18.4963 5.68921C17.7327 6.52628 16.4236 5.92838 16.4236 4.74585C16.4236 4.39346 16.5513 4.05551 16.7786 3.80633C17.0059 3.55716 17.3142 3.41717 17.6357 3.41717ZM1.87814 14.0466V24.6761C1.87814 25.3808 2.13355 26.0567 2.58818 26.5551C3.04281 27.0534 3.65943 27.3334 4.30238 27.3334H23.6963C24.3393 27.3334 24.9559 27.0534 25.4105 26.5551C25.8652 26.0567 26.1206 25.3808 26.1206 24.6761V14.0466H15.2115V24.6761H12.7872V14.0466H1.87814Z" fill="#1C5C5F"/>
</svg>
